<mxfile host="app.diagrams.net" agent="Mozilla/5.0 (Windows NT 10.0; Win64; x64) AppleWebKit/537.36 (KHTML, like Gecko) Chrome/131.0.0.0 Safari/537.36 Edg/131.0.0.0" version="25.0.3">
  <diagram name="PÃ¡gina-1" id="wOeBmhhADUPQcXCl4Kil">
    <mxGraphModel dx="1106" dy="609" grid="1" gridSize="10" guides="1" tooltips="1" connect="1" arrows="1" fold="1" page="1" pageScale="1" pageWidth="827" pageHeight="1169" math="0" shadow="0">
      <root>
        <mxCell id="0" />
        <mxCell id="1" parent="0" />
        <mxCell id="F0s2K-eVolFZSQ3Ac2We-1" value="SERVIDOR" style="rounded=0;whiteSpace=wrap;html=1;" vertex="1" parent="1">
          <mxGeometry x="310" y="280" width="130" height="70" as="geometry" />
        </mxCell>
        <mxCell id="F0s2K-eVolFZSQ3Ac2We-8" style="edgeStyle=orthogonalEdgeStyle;rounded=0;orthogonalLoop=1;jettySize=auto;html=1;" edge="1" parent="1" source="F0s2K-eVolFZSQ3Ac2We-3">
          <mxGeometry relative="1" as="geometry">
            <mxPoint x="260" y="260" as="targetPoint" />
          </mxGeometry>
        </mxCell>
        <mxCell id="F0s2K-eVolFZSQ3Ac2We-3" value="nginx" style="rounded=0;whiteSpace=wrap;html=1;" vertex="1" parent="1">
          <mxGeometry x="334" y="240" width="80" height="40" as="geometry" />
        </mxCell>
        <mxCell id="F0s2K-eVolFZSQ3Ac2We-9" value="HTTP" style="text;html=1;align=center;verticalAlign=middle;resizable=0;points=[];autosize=1;strokeColor=none;fillColor=none;" vertex="1" parent="1">
          <mxGeometry x="200" y="245" width="50" height="30" as="geometry" />
        </mxCell>
      </root>
    </mxGraphModel>
  </diagram>
</mxfile>
